<svg width="36" height="42" viewBox="0 0 36 42" fill="none" xmlns="http://www.w3.org/2000/svg">
<path d="M33 0H30V4.5C30 6.981 27.981 9 25.5 9H10.5C8.019 9 6 6.981 6 4.5V0H3C1.347 0 0 1.347 0 3V39C0 40.683 1.317 42 3 42H33C34.683 42 36 40.683 36 39V3C36 1.317 34.683 0 33 0ZM17.562 26.562L11.562 32.562C11.268 32.853 10.884 33 10.5 33C10.116 33 9.732 32.853 9.438 32.562L6.438 29.562C5.853 28.977 5.853 28.026 6.438 27.441C7.023 26.856 7.974 26.856 8.559 27.441L10.5 29.379L15.438 24.441C16.023 23.856 16.974 23.856 17.559 24.441C18.144 25.026 18.147 25.974 17.562 26.562ZM17.562 14.562L11.562 20.562C11.268 20.853 10.884 21 10.5 21C10.116 21 9.732 20.853 9.438 20.562L6.438 17.562C5.853 16.977 5.853 16.026 6.438 15.441C7.023 14.856 7.974 14.856 8.559 15.441L10.5 17.379L15.438 12.441C16.023 11.856 16.974 11.856 17.559 12.441C18.144 13.026 18.147 13.974 17.562 14.562ZM28.5 30H22.5C21.672 30 21 29.328 21 28.5C21 27.672 21.672 27 22.5 27H28.5C29.328 27 30 27.672 30 28.5C30 29.328 29.328 30 28.5 30ZM28.5 18H22.5C21.672 18 21 17.328 21 16.5C21 15.672 21.672 15 22.5 15H28.5C29.328 15 30 15.672 30 16.5C30 17.328 29.328 18 28.5 18Z" fill="#E1AA98"/>
</svg>
